<?xml version="1.0" encoding="utf-8"?>
<!-- Generator: Adobe Illustrator 19.1.0, SVG Export Plug-In . SVG Version: 6.00 Build 0)  -->
<svg version="1.1" id="Layer_1" xmlns="http://www.w3.org/2000/svg" xmlns:xlink="http://www.w3.org/1999/xlink" x="0px" y="0px"
	 viewBox="0 0 38.5 38.5" style="enable-background:new 0 0 38.5 38.5;" xml:space="preserve">
<style type="text/css">
	.st0{fill:transparent;}
	.st1{clip-path:url(#SVGID_2_);fill:#FFFFFF;}
</style>
<g>
	<path class="st0" d="M19.3,38.5c10.6,0,19.3-8.6,19.3-19.3C38.5,8.6,29.9,0,19.3,0S0,8.6,0,19.3C0,29.9,8.6,38.5,19.3,38.5"/>
</g>
<g>
	<defs>
		<circle id="SVGID_1_" cx="19.3" cy="19.3" r="19.3"/>
	</defs>
	<clipPath id="SVGID_2_">
		<use xlink:href="#SVGID_1_"  style="overflow:visible;"/>
	</clipPath>
	<path class="st1" d="M11.9,9.9c-0.5,1.1-1.6,2.4-3.1,2.4c-0.8,0-2.3-0.8-2.9-0.8c-0.9,0-1.2,0.3-1.2,0.9c0,0.2-0.5,0.4-0.5-0.4
		c0-1.5,1.3-2.6,2.7-2.6c1.1,0,2.7,0.9,3.4,0.9c0.6,0,1-0.2,1.4-0.5C12,9.5,12,9.7,11.9,9.9"/>
	<path class="st1" d="M18.6,9.5c-0.8,1-1.3,1.7-2.1,2.9c-0.7-0.6-1.3-0.9-2.2-0.9c-1.8,0-2.5,1-2.5,3.2V18c0.8-1.4,1.6-2.1,3.1-2.1
		c0.7,0,1.4,0.3,1.7,0.6l0.5-0.8l0.3,0.2c-0.8,1.2-1.4,2-1.9,3c-0.6-0.4-1.3-0.7-2.2-0.7c-0.7,0-1.1,0.2-1.6,0.5v5.5
		c0.3,0,0.7,0,1,0c1.9,0,3.2,0.6,4.2,1.3l0.6-0.8l0.4,0.3c-0.6,0.7-1.3,1.8-2.2,3.2c-1-0.7-2.1-1.3-4.3-1.3c-3.1,0-4.9,1.2-4.9,2.4
		c0,0.4-0.5,0.5-0.5-0.3c0-2.1,1.5-4.1,5.2-4.6V14.1c0-3.6,2-4.9,4.3-4.9c1.1,0,1.7,0.4,2.2,0.8l0.5-0.6L18.6,9.5z"/>
	<path class="st1" d="M10.9,12.6c-0.4,0.4-0.5,0.8-0.5,1.4v6.4c0,1.9-0.6,2.9-1.5,3.5l-1.6,1C7,25.1,6.7,24.9,7,24.6
		c0.3-0.3,0.7-0.7,0.7-1.5v-3.9H7.3c-0.6,0-1,0.4-1.1,1.2c0,0.2-0.2,0.2-0.3,0c-0.3-0.5-0.5-1.1-0.5-1.7c0-1.2,0.8-1.9,2.3-1.9v-0.7
		c0-1.6,0.8-2.5,1.5-2.9c0,0,1.1-0.6,1.5-0.8C11,12.3,11.1,12.4,10.9,12.6"/>
	<path class="st1" d="M26.7,20.1l-2.6-6c-0.4-0.9-0.7-1.6-0.9-1.9v8.1c0.6-0.2,1.3-0.4,1.9-0.4C25.7,19.8,26.2,19.9,26.7,20.1
		 M31.2,22.5v-6c-0.5,0.1-1,0.2-1.4,0.2c-0.4,0-0.8,0-1.3-0.1C29.3,18.4,30,20,30,20C30.5,21.3,30.7,21.9,31.2,22.5 M34.3,9.7
		c-0.2,1.1-0.9,2.7-2.5,2.9v13.6c0,0.5,0.1,1.3,0.3,1.6c0.1,0.1,0.1,0.2-0.1,0.2c-1.1-0.2-2.4-1.3-3.2-3.3L27,20.8
		c-0.6-0.2-1.2-0.4-1.9-0.4c-0.6,0-1.2,0.1-1.9,0.3v3.6c1.3,0,2.2,0.4,2.8,0.8l0.4-0.7l0.3,0.2c-0.5,0.8-1.2,2.1-1.7,3.2
		c-0.6-0.5-1.7-1-2.9-1c-1.5,0-2.5,0.8-2.5,1.6c0,0.5-0.3,0.5-0.3-0.2c0-1.8,1.2-3.9,3.4-3.9v-5.1h-0.4c-0.6,0-1,0.4-1.1,1.2
		c0,0.2-0.2,0.3-0.3,0c-0.3-0.6-0.5-1.1-0.5-1.7c0-1.1,0.8-1.9,2.3-1.9v-5.2c-0.2-0.1-0.4-0.2-0.6-0.2c-1,0-1.7,0.6-1.4,2.2
		c0,0.2-0.1,0.4-0.3,0.1c-0.3-0.5-0.5-1.1-0.5-1.7c0-2.3,1.8-3,3-3c2.1,0,3.2,1.7,3.7,2.8l1.8,4.1c0.5,0.1,1,0.2,1.5,0.2
		c0.5,0,1-0.1,1.4-0.2v-3.3c-1.3,0-1.7-0.4-2.1-0.7c0,0-0.2,0.3-0.4,0.6l-0.3-0.2c0.3-0.4,2-3.1,2-3.1c0.6,0.5,1.2,0.7,1.9,0.7
		c1,0,1.5-0.2,1.9-0.5C34.3,9.3,34.4,9.3,34.3,9.7"/>
</g>
</svg>