<?xml version="1.0" encoding="utf-8"?>
<!-- Generator: Adobe Illustrator 19.1.0, SVG Export Plug-In . SVG Version: 6.00 Build 0)  -->
<svg version="1.1" id="Layer_1" xmlns="http://www.w3.org/2000/svg" xmlns:xlink="http://www.w3.org/1999/xlink" x="0px" y="0px"
	 viewBox="0 0 38.5 38.5" style="enable-background:new 0 0 38.5 38.5;" xml:space="preserve">
<style type="text/css">
	.st0{fill:transparent;}
	.st1{fill:#FFFFFF;}
	.st2{fill:none;stroke:#FFFFFF;stroke-width:1.05;}
</style>
<g>
	<path class="st0" d="M19.3,38.6c10.6,0,19.3-8.6,19.3-19.3C38.5,8.7,29.9,0,19.3,0S0,8.7,0,19.3C0,29.9,8.6,38.6,19.3,38.6"/>
	<path class="st1" d="M25,21.1c0,1-0.8,1.8-1.8,1.8c-1,0-1.8-0.8-1.8-1.8c0-1,0.8-1.8,1.8-1.8C24.2,19.2,25,20.1,25,21.1 M24.4,24.7
		c-0.6,1.7-2.7,3-5.1,3c-2.4,0-4.5-1.3-5.1-3c1.2,0.9,3.1,1.4,5.1,1.4C21.3,26.1,23.1,25.5,24.4,24.7 M17.2,21.1
		c0,1-0.8,1.8-1.8,1.8c-1,0-1.8-0.8-1.8-1.8c0-1,0.8-1.8,1.8-1.8C16.3,19.2,17.2,20.1,17.2,21.1 M32.4,19.2c0-1.7-1.4-3.1-3.2-3.1
		c-0.7,0-1.4,0.3-1.9,0.7c-1.8-1.2-4.2-2-6.9-2.2l1-4.5l4.3,1l0.2-1l-5.3-1.2l-0.2,1l-1.1,4.7c0,0-0.1,0-0.1,0c-3.1,0-6,0.9-8.1,2.2
		c-0.5-0.4-1.2-0.7-1.9-0.7c-1.7,0-3.1,1.4-3.1,3.1c0,1.2,0.7,2.2,1.6,2.7c0,0.1,0,0.3,0,0.4c0,4.3,5.2,7.9,11.5,7.9
		s11.5-3.5,11.5-7.9c0-0.1,0-0.3,0-0.4C31.7,21.4,32.4,20.4,32.4,19.2"/>
	<circle class="st2" cx="28.2" cy="10.9" r="2.1"/>
</g>
</svg>