<?xml version="1.0" encoding="utf-8"?>
<!-- Generator: Adobe Illustrator 19.1.0, SVG Export Plug-In . SVG Version: 6.00 Build 0)  -->
<svg version="1.1" id="Layer_1" xmlns="http://www.w3.org/2000/svg" xmlns:xlink="http://www.w3.org/1999/xlink" x="0px" y="0px"
	 viewBox="0 0 38.5 38.5" style="enable-background:new 0 0 38.5 38.5;" xml:space="preserve">
<style type="text/css">
	.st0{fill:transparent;}
	.st1{fill:#FFFFFF;}
</style>
<g>
	<path class="st0" d="M19.3,38.5c10.6,0,19.3-8.6,19.3-19.3C38.5,8.6,29.9,0,19.3,0S0,8.6,0,19.3C0,29.9,8.6,38.5,19.3,38.5"/>
	<path class="st1" d="M7.9,26.4c2.1,1.3,4.5,2.1,7.1,2.1c8.6,0,13.5-7.3,13.2-13.8c0.9-0.7,1.7-1.5,2.3-2.4
		c-0.8,0.4-1.7,0.6-2.7,0.7c1-0.6,1.7-1.5,2-2.6c-0.9,0.5-1.9,0.9-2.9,1.1c-0.8-0.9-2.1-1.5-3.4-1.5c-3,0-5.2,2.8-4.5,5.7
		c-3.9-0.2-7.3-2-9.6-4.9C8.3,13,8.9,15.7,11,17.1c-0.8,0-1.5-0.2-2.1-0.6c-0.1,2.2,1.5,4.2,3.7,4.6c-0.7,0.2-1.4,0.2-2.1,0.1
		c0.6,1.8,2.3,3.2,4.3,3.2C12.9,26,10.4,26.7,7.9,26.4"/>
</g>
</svg>